# xmcd
#
# Track frame offsets: 
#        150
#        11293
#        26512
#        35006
#        46261
#        57780
#        73043
#        83363
#        100217
#        111942
#        124071
#        134546
#        144189
#        157043
#        166506
#        176115
#        185230
#        197313
#        207944
#        217113
#
# Disc length: 3102 seconds
#
# Revision: 0
# Processed by: cddbd v1.5.2PL0 Copyright (c) Steve Scherf et al.
# Submitted via: ExactAudioCopy v0.99pb5
#
DISCID=130c1c14
DTITLE=Boxcar Willie - 20 All Time Favorites
DYEAR=1986
DGENRE=Country
TTITLE0=Gotta Travel On
TTITLE1=The Wayward Wind
TTITLE2=If You've Got The Money
TTITLE3=When My Blue Moon Turns To Gold Again
TTITLE4=The Old Iron Trail
TTITLE5=I Love You Because
TTITLE6=Your Tip's On The Table Mabel
TTITLE7=Have I Told You Lately That I Love You
TTITLE8=Sioux City Sue
TTITLE9=Packy
TTITLE10=Jambalaya
TTITLE11=Golden Rocket
TTITLE12=Depressin' Recession Blues
TTITLE13=Movin' On
TTITLE14=Walking The Floor Over You
TTITLE15=Mama Tried
TTITLE16=Waltz Across Texas
TTITLE17=Rock Island Line
TTITLE18=Baby We're Really In Love
TTITLE19=Will The Circle Be Unbroken
EXTD=
EXTT0=
EXTT1=
EXTT2=
EXTT3=
EXTT4=
EXTT5=
EXTT6=
EXTT7=
EXTT8=
EXTT9=
EXTT10=
EXTT11=
EXTT12=
EXTT13=
EXTT14=
EXTT15=
EXTT16=
EXTT17=
EXTT18=
EXTT19=
PLAYORDER=
